<svg width="32" height="32" viewBox="0 0 32 32" fill="none" xmlns="http://www.w3.org/2000/svg">
<path fill-rule="evenodd" clip-rule="evenodd" d="M18.9596 8.31952C19.3501 7.89349 19.9832 7.89349 20.3738 8.31952L26.7071 15.2286L26.7077 15.2294C26.7367 15.261 26.7639 15.2946 26.7891 15.3299L26.7903 15.3314C26.8538 15.4204 26.9028 15.5177 26.9375 15.6195C26.9773 15.7362 26.9993 15.8623 27 15.9939C27 15.996 27 15.998 27 16.0001C27 16.1651 26.9664 16.3216 26.9063 16.4618C26.8732 16.5392 26.8312 16.6132 26.7806 16.6821C26.7553 16.7164 26.7283 16.749 26.6995 16.7797L20.3738 23.6805L20.2796 23.7712C19.8873 24.104 19.32 24.0737 18.9596 23.6805L18.8764 23.5777C18.5713 23.1498 18.5991 22.531 18.9596 22.1377L23.5853 17.091H7L6.88338 17.0837C6.38604 17.0206 6 16.5595 6 16.0001C6 15.3976 6.44772 14.9092 7 14.9092H23.5866L18.9596 9.8623L18.8764 9.75953C18.5713 9.33157 18.5991 8.71278 18.9596 8.31952Z" fill="#87189D"/>
</svg>
