<svg width="24" height="24" viewBox="0 0 24 24" fill="none" xmlns="http://www.w3.org/2000/svg">
<path fill-rule="evenodd" clip-rule="evenodd" d="M13.0359 3.20336L10.9547 3.20001C9.53942 3.20001 8.64503 3.99889 8.39741 5.41683L8.3891 5.5127V6.9629H5.93568C5.60081 6.9629 5.32092 7.19872 5.28949 7.50733L4.00292 20.1428C3.96703 20.4954 4.26659 20.8 4.64911 20.8H19.3509C19.7311 20.8 20.0299 20.4988 19.9976 20.1481L18.8329 7.51263C18.8042 7.20174 18.5232 6.9629 18.1862 6.9629H15.5902V5.5127L15.5861 5.36006C15.5177 4.10805 14.5982 3.35676 13.0359 3.20336ZM14.2921 8.16448V9.69075L14.2981 9.77228C14.341 10.0655 14.6126 10.2916 14.9412 10.2916C15.2997 10.2916 15.5902 10.0226 15.5902 9.69075V8.16448H17.59L18.6441 19.5982H5.36187L6.52583 8.16448H8.3891V9.69075L8.39502 9.77228C8.438 10.0655 8.70956 10.2916 9.03815 10.2916L9.12622 10.2861C9.44302 10.2463 9.6872 9.99492 9.6872 9.69075L9.68718 8.16448H14.2921ZM14.2921 6.9629V5.5127C14.2921 4.8722 13.95 4.53774 13.1274 4.42098L12.9675 4.40162H10.9547C10.2568 4.40162 9.8762 4.7049 9.70796 5.46139L9.68715 5.565L9.68717 6.9629H14.2921Z" fill="black"/>
</svg>
