<svg width="48" height="48" viewBox="0 0 48 48" fill="none" xmlns="http://www.w3.org/2000/svg">
<path fill-rule="evenodd" clip-rule="evenodd" d="M20.36 27.7H30.36C30.9607 27.7004 31.5037 27.3423 31.74 26.79L34.74 19.79C34.9383 19.3264 34.8905 18.7942 34.6126 18.3735C34.3348 17.9527 33.8642 17.6997 33.36 17.7H16.86C16.5716 17.7037 16.2903 17.7905 16.05 17.95L15.05 15.65C14.9311 15.3775 14.6623 15.2009 14.365 15.2H12.865C12.4508 15.2 12.115 15.5358 12.115 15.95C12.115 16.3642 12.4508 16.7 12.865 16.7H13.865L18.43 27.13C18.9953 28.8215 18.7868 30.6762 17.86 32.2C17.8588 33.2176 18.4745 34.1344 19.417 34.5183C20.3594 34.9021 21.4405 34.6764 22.1506 33.9476C22.8607 33.2187 23.0582 32.1321 22.65 31.2H28.075C27.6339 32.2108 27.9073 33.3913 28.7479 34.1052C29.5885 34.8192 30.7976 34.898 31.7237 34.2992C32.6499 33.7004 33.0742 32.5655 32.7681 31.506C32.462 30.4464 31.4978 29.7126 30.395 29.7H20.48H20.38C19.8277 29.7 19.38 29.2523 19.38 28.7C19.38 28.1477 19.8277 27.7 20.38 27.7H20.36ZM33.36 19.2L30.36 26.2H19.86L16.86 19.2H33.36ZM21.36 32.2C21.36 32.7523 20.9123 33.2 20.36 33.2C19.8077 33.2 19.36 32.7523 19.36 32.2C19.36 31.6477 19.8077 31.2 20.36 31.2C20.9123 31.2 21.36 31.6477 21.36 32.2ZM31.36 32.2C31.36 32.7523 30.9123 33.2 30.36 33.2C29.8077 33.2 29.36 32.7523 29.36 32.2C29.36 31.6477 29.8077 31.2 30.36 31.2C30.9123 31.2 31.36 31.6477 31.36 32.2Z" fill="black"/>
</svg>
