<svg width="20" height="23" viewBox="0 0 20 23" fill="none" xmlns="http://www.w3.org/2000/svg">
<path fill-rule="evenodd" clip-rule="evenodd" d="M16.86 20.7H1.85999V1.7H10.36V0.199997H1.85999C1.03156 0.199997 0.359985 0.87157 0.359985 1.7V20.7C0.359985 21.5284 1.03156 22.2 1.85999 22.2H16.86C17.6884 22.2 18.36 21.5284 18.36 20.7V11.2H16.86V20.7Z" fill="black"/>
<path fill-rule="evenodd" clip-rule="evenodd" d="M19.42 2.07L18.36 1.01C17.7743 0.425093 16.8256 0.425093 16.24 1.01C16.24 1.01 7.90498 9.335 7.77998 9.84L7.40498 11.34C7.27661 11.8515 7.42629 12.3929 7.7992 12.7658C8.17212 13.1387 8.71346 13.2884 9.22498 13.16L10.725 12.785C11.225 12.655 19.42 4.195 19.42 4.195C20.0049 3.60936 20.0049 2.66063 19.42 2.075V2.07ZM11.32 10.17L10.295 9.145L10.26 9.115L17.3 2.075L18.36 3.135L11.32 10.17Z" fill="black"/>
</svg>
