<svg width="24" height="24" viewBox="0 0 24 24" fill="none" xmlns="http://www.w3.org/2000/svg">
<path fill-rule="evenodd" clip-rule="evenodd" d="M4.07999 10.176C4.18682 5.92646 7.60646 2.50682 11.856 2.39999C16.1055 2.50682 19.5252 5.92646 19.632 10.176C19.5546 11.4337 19.2021 12.6592 18.5995 13.7659L18.539 13.8696C18.4958 13.9474 17.4245 15.6754 16.176 17.4034C13.7957 20.7514 12.7891 21.408 11.856 21.408C11.2598 21.408 9.85583 21.408 5.15567 13.8739L5.09519 13.7659C4.49862 12.6578 4.15209 11.4324 4.07999 10.176ZM11.856 20.112C13.152 20.112 17.472 13.2 17.472 13.2H17.459C17.9658 12.2669 18.2649 11.2354 18.336 10.176C18.336 6.59719 15.4348 3.69599 11.856 3.69599C8.2772 3.69599 5.376 6.59719 5.376 10.176C5.44307 11.2344 5.73778 12.2659 6.24 13.2C6.24 13.2 10.56 20.112 11.856 20.112ZM8.40001 9.74399C8.40001 7.83529 9.94731 6.28799 11.856 6.28799C13.7647 6.28799 15.312 7.83529 15.312 9.74399C15.312 11.6527 13.7647 13.2 11.856 13.2C9.94731 13.2 8.40001 11.6527 8.40001 9.74399ZM9.69602 9.74399C9.69602 10.9369 10.6631 11.904 11.856 11.904C13.049 11.904 14.016 10.9369 14.016 9.74399C14.016 8.55106 13.049 7.58399 11.856 7.58399C10.6631 7.58399 9.69602 8.55106 9.69602 9.74399Z" fill="white"/>
</svg>
