<svg width="48" height="48" viewBox="0 0 48 48" fill="none" xmlns="http://www.w3.org/2000/svg">
<path fill-rule="evenodd" clip-rule="evenodd" d="M16 19C16 18.4477 16.4477 18 17 18H31C31.5523 18 32 18.4477 32 19C32 19.5523 31.5523 20 31 20H17C16.4477 20 16 19.5523 16 19ZM16 24C16 23.4477 16.4477 23 17 23H31C31.5523 23 32 23.4477 32 24C32 24.5523 31.5523 25 31 25H17C16.4477 25 16 24.5523 16 24ZM17 28C16.4477 28 16 28.4477 16 29C16 29.5523 16.4477 30 17 30H31C31.5523 30 32 29.5523 32 29C32 28.4477 31.5523 28 31 28H17Z" fill="black"/>
</svg>
