<svg width="29" height="28" viewBox="0 0 29 28" fill="none" xmlns="http://www.w3.org/2000/svg">
<path fill-rule="evenodd" clip-rule="evenodd" d="M9.8204 8.75271C9.8204 8.89479 9.70486 9.00933 9.56233 9.00933H3.07857C2.93604 9.00933 2.82051 8.89416 2.82051 8.75271V2.28896C2.82051 2.14688 2.93604 2.03234 3.07857 2.03234H9.56296C9.70549 2.03234 9.82102 2.14751 9.82102 2.28896L9.8204 8.75271ZM11.7694 2.29647C11.7694 1.10161 10.798 0.133335 9.59875 0.133335H3.08548C1.88681 0.133335 0.91544 1.10161 0.91544 2.29647V8.78964C0.91544 9.98449 1.88681 10.9528 3.08548 10.9528H9.59937C10.798 10.9528 11.77 9.98449 11.77 8.78964L11.7694 2.29647Z" fill="black"/>
<mask id="mask0_12169_10210" style="mask-type:luminance" maskUnits="userSpaceOnUse" x="0" y="0" width="29" height="28">
<path fill-rule="evenodd" clip-rule="evenodd" d="M0.91544 27.8667H28.6488V0.133335H0.91544V27.8667Z" fill="white"/>
</mask>
<g mask="url(#mask0_12169_10210)">
<path fill-rule="evenodd" clip-rule="evenodd" d="M4.23832 7.59603H8.40259V3.44501H4.23832V7.59603Z" fill="black"/>
<path fill-rule="evenodd" clip-rule="evenodd" d="M9.8204 25.7002C9.8204 25.8429 9.71491 25.9687 9.57237 25.9687H3.07606C2.93353 25.9687 2.82051 25.8429 2.82051 25.7002V19.2233C2.82051 19.0819 2.93353 18.946 3.07606 18.946H9.573C9.71491 18.946 9.82102 19.0825 9.82102 19.2233L9.8204 25.7002ZM11.7694 19.2102C11.7694 18.0166 10.798 17.0483 9.59875 17.0483H3.08548C1.88681 17.0483 0.91544 18.0166 0.91544 19.2102V25.704C0.91544 26.8982 1.88681 27.8665 3.08548 27.8665H9.59937C10.798 27.8665 11.77 26.8982 11.77 25.704L11.7694 19.2102Z" fill="black"/>
<path fill-rule="evenodd" clip-rule="evenodd" d="M4.23832 24.5537H8.40259V20.3589H4.23832V24.5537Z" fill="black"/>
<path fill-rule="evenodd" clip-rule="evenodd" d="M26.7003 8.75271C26.7003 8.89479 26.5841 9.00933 26.4416 9.00933H19.9578C19.8146 9.00933 19.7004 8.89416 19.7004 8.75271V2.28896C19.7004 2.14688 19.8153 2.03234 19.9578 2.03234H26.4409C26.5841 2.03234 26.6996 2.14751 26.6996 2.28896V8.75271H26.7003ZM28.6493 2.29647C28.6493 1.10161 27.6779 0.133335 26.4786 0.133335H19.9647C18.766 0.133335 17.794 1.10161 17.794 2.29647V8.78964C17.794 9.98449 18.7654 10.9528 19.9647 10.9528H26.4786C27.6779 10.9528 28.6493 9.98449 28.6493 8.78964V2.29647Z" fill="black"/>
<path fill-rule="evenodd" clip-rule="evenodd" d="M21.117 7.59603H25.3259V3.44501H21.117V7.59603Z" fill="black"/>
<path fill-rule="evenodd" clip-rule="evenodd" d="M3.38738 12.1891C3.07406 12.1891 2.82038 12.4419 2.82038 12.7543V14.1857C2.82038 14.498 3.07406 14.7497 3.38738 14.7497H4.72545V14.8022C4.72545 15.1152 4.97912 15.3687 5.29245 15.3687H8.53558V15.4213C8.53558 15.7342 8.78925 15.9864 9.10258 15.9864H10.5386C10.8519 15.9864 11.1056 15.7342 11.1056 15.4213V14.0349C11.1056 13.7225 10.8519 13.4697 10.5386 13.4697H9.8209V12.7536C9.8209 12.4413 9.56723 12.1884 9.2539 12.1884H8.48158C8.16825 12.1884 7.91458 12.4413 7.91458 12.7536V13.4697H5.3904V12.7536C5.3904 12.4413 5.13672 12.1884 4.8234 12.1884L3.38738 12.1891Z" fill="black"/>
<path fill-rule="evenodd" clip-rule="evenodd" d="M13.9401 9.41617C13.9401 9.7285 14.1938 9.98136 14.5071 9.98136H16.5628C16.8762 9.98136 17.1292 9.7285 17.1292 9.41617V7.98472C17.1292 7.67239 16.8762 7.41952 16.5628 7.41952H15.8451V3.00312H15.9418C16.2558 3.00312 16.5088 2.75025 16.5088 2.43793V1.66994C16.5088 1.35761 16.2558 1.10474 15.9418 1.10474H13.2224C12.9091 1.10474 12.6554 1.35761 12.6554 1.66994V2.43855C12.6554 2.75088 12.9091 3.00375 13.2224 3.00375H13.9401V5.03544H13.2224C12.9091 5.03544 12.6554 5.28831 12.6554 5.60064V5.70704C12.6554 6.01937 12.9091 6.27224 13.2224 6.27224H13.9401V9.41617Z" fill="black"/>
<path fill-rule="evenodd" clip-rule="evenodd" d="M15.5794 11.4736C15.5794 11.1613 15.3257 10.9085 15.0124 10.9085H13.5764C13.2631 10.9085 13.0094 11.1613 13.0094 11.4736V12.9051C13.0094 13.2174 13.2631 13.4703 13.5764 13.4703H15.0124C15.3257 13.4703 15.5794 13.2174 15.5794 12.9051V11.4736Z" fill="black"/>
<path fill-rule="evenodd" clip-rule="evenodd" d="M25.7694 17.9301H25.0518C24.7378 17.9301 24.4854 18.183 24.4854 18.4953V21.1636C24.4854 21.4753 24.7378 21.7281 25.0518 21.7281H27.7718C28.0858 21.7281 28.3395 21.4753 28.3395 21.1636V12.7539C28.3395 12.4416 28.0858 12.1893 27.7718 12.1893H26.3358C26.0231 12.1893 25.7701 12.4416 25.7701 12.7539V17.9301H25.7694Z" fill="black"/>
<path fill-rule="evenodd" clip-rule="evenodd" d="M19.3457 15.855H19.443C19.7563 15.855 20.0106 15.6028 20.0106 15.2898V13.9028C20.0106 13.5905 19.7563 13.3376 19.443 13.3376H18.007C17.6936 13.3376 17.44 13.5905 17.44 13.9028V14.6182H14.8172C14.5039 14.6182 14.2502 14.8717 14.2502 15.184V18.47C14.2502 18.7824 14.5039 19.0352 14.8172 19.0352H18.7787C19.0914 19.0352 19.345 18.7824 19.345 18.47V15.855H19.3457Z" fill="black"/>
<path fill-rule="evenodd" clip-rule="evenodd" d="M24.4848 12.8516V12.1356C24.4848 11.8233 24.2311 11.5704 23.9178 11.5704H23.7665C23.4538 11.5704 23.2001 11.8233 23.2001 12.1356V12.8516H21.8621C21.5481 12.8516 21.2957 13.1045 21.2957 13.4168V15.4229C21.2957 15.7346 21.5481 15.9874 21.8621 15.9874H23.9178C24.2311 15.9874 24.4848 15.7346 24.4848 15.4229V12.8516Z" fill="black"/>
<path fill-rule="evenodd" clip-rule="evenodd" d="M20.6744 19.8286H19.3364C19.023 19.8286 18.7694 20.0815 18.7694 20.3938V21.1637C18.7694 21.4754 19.023 21.7283 19.3364 21.7283H20.6744V26.6773C20.6744 26.9896 20.9281 27.2425 21.2414 27.2425H22.6329C22.9462 27.2425 23.1992 26.9896 23.1992 26.6773V17.8332C23.1992 17.5209 22.9462 17.2681 22.6329 17.2681H21.2414C20.9281 17.2681 20.6744 17.5209 20.6744 17.8332V19.8286Z" fill="black"/>
<path fill-rule="evenodd" clip-rule="evenodd" d="M14.2948 26.6769C14.2948 26.9893 14.5485 27.2409 14.8618 27.2409H16.9169C17.2309 27.2409 17.4839 26.9893 17.4839 26.6769V21.0119C17.4839 20.7002 17.2309 20.4473 16.9169 20.4473H14.8618C14.5485 20.4473 14.2948 20.7002 14.2948 21.0119V26.6769Z" fill="black"/>
<path fill-rule="evenodd" clip-rule="evenodd" d="M24.0415 26.6769C24.0415 26.9893 24.2945 27.2409 24.6072 27.2409H26.4878C26.8005 27.2409 27.0541 26.9893 27.0541 26.6769V25.2893C27.0541 24.9776 26.8005 24.7247 26.4878 24.7247H24.6072C24.2945 24.7247 24.0415 24.9776 24.0415 25.2893V26.6769Z" fill="black"/>
</g>
</svg>
