<svg width="48" height="48" viewBox="0 0 48 48" fill="none" xmlns="http://www.w3.org/2000/svg">
<path fill-rule="evenodd" clip-rule="evenodd" d="M33.2859 33.2233L28.6659 28.6283C31.9031 25.3712 32.0017 20.1426 28.8897 16.7657C25.7777 13.3887 20.5586 13.0608 17.0483 16.0216C13.5381 18.9824 12.9814 24.1822 15.7853 27.8189C18.5893 31.4557 23.7596 32.24 27.5159 29.5983L32.2259 34.3083C32.5214 34.5837 32.9819 34.5756 33.2675 34.29C33.5531 34.0043 33.5613 33.5438 33.2859 33.2483V33.2233ZM15.6309 22.6283C15.6309 18.7623 18.7649 15.6283 22.6309 15.6283C26.4969 15.6283 29.6309 18.7623 29.6309 22.6283C29.6309 26.4943 26.4969 29.6283 22.6309 29.6283C18.7649 29.6283 15.6309 26.4943 15.6309 22.6283Z" fill="black"/>
</svg>
