<svg width="15" height="17" viewBox="0 0 15 17" fill="none" xmlns="http://www.w3.org/2000/svg">
<path fill-rule="evenodd" clip-rule="evenodd" d="M14.2 17H0.6C0.268629 17 0 16.7314 0 16.4V6.8C0 6.46863 0.268629 6.2 0.6 6.2H3.6C3.93137 6.2 4.2 6.46863 4.2 6.8C4.2 7.13137 3.93137 7.4 3.6 7.4H1.2V15.8H13.6V7.4H10.8C10.4686 7.4 10.2 7.13137 10.2 6.8C10.2 6.46863 10.4686 6.2 10.8 6.2H14.2C14.5314 6.2 14.8 6.46863 14.8 6.8V16.4C14.8 16.7314 14.5314 17 14.2 17Z" fill="black"/>
<path fill-rule="evenodd" clip-rule="evenodd" d="M7.40005 12.4C7.06868 12.4 6.80005 12.1314 6.80005 11.8V2.288L5.26405 4.176C5.05529 4.43336 4.67742 4.47276 4.42005 4.264C4.16269 4.05524 4.12329 3.67736 4.33205 3.42L6.98805 0.16C7.11671 0.0956593 7.25051 0.0421411 7.38805 0C7.5503 0.0594916 7.70582 0.135914 7.85205 0.228L10.4521 3.428C10.5521 3.55093 10.599 3.70865 10.5825 3.86628C10.566 4.02391 10.4874 4.16847 10.3641 4.268C10.2405 4.36826 10.0821 4.41532 9.92382 4.39881C9.76554 4.38231 9.6203 4.3036 9.52005 4.18L7.98405 2.292V11.8C7.98417 12.1252 7.72516 12.3913 7.40005 12.4Z" fill="black"/>
</svg>
