<svg width="143" height="36" viewBox="0 0 143 36" fill="none" xmlns="http://www.w3.org/2000/svg">
<path fill-rule="evenodd" clip-rule="evenodd" d="M2.10936 5.27341C2.10936 3.52862 3.52862 2.10936 5.27341 2.10936H30.7266C32.4709 2.10936 33.8906 3.52862 33.8906 5.27341V30.7266C33.8906 32.4709 32.4709 33.8906 30.7266 33.8906H23.3438V25.3124H28.4559L29.8621 16.8749H23.3438V14.7656H29.6719V6.32809H22.2891C18.218 6.32809 14.9064 9.6398 14.9064 13.7109V16.8749H10.6876V25.3124H14.9064V33.8906H5.27341C3.52862 33.8906 2.10936 32.4709 2.10936 30.7266V5.27341ZM5.27341 36H17.0157V23.203H12.797V18.9843H17.0157V13.7109C17.0157 10.8029 19.3812 8.43746 22.2891 8.43746H27.5625V12.6562H23.3438C22.1806 12.6562 21.2344 13.6024 21.2344 14.7656V18.9843H27.372L26.6689 23.203H21.2344V36H30.7266C33.6342 36 36 33.6342 36 30.7266V5.27341C36 2.36548 33.6342 0 30.7266 0H5.27341C2.36548 0 0 2.36548 0 5.27341V30.7266C0 33.6342 2.36548 36 5.27341 36Z" fill="white"/>
<path fill-rule="evenodd" clip-rule="evenodd" d="M116.291 10.954C117.232 6.42109 120.81 3.20993 125.863 2.36363C131.931 1.34744 138.823 3.36514 140.543 10.1643C142.133 16.4516 138.635 21.4156 134.711 23.3671C132.304 24.5639 129.033 24.9189 127.07 22.3248L125.79 20.6322L125.25 22.6965C124.537 25.4202 123.384 30.0437 121.531 32.5145C121.167 29.458 122.52 24.3531 123.383 21.0953C124.207 17.9852 124.531 16.6919 124.255 15.9043C123.698 14.3109 123.681 12.8831 124.203 11.5382C124.788 10.0328 126.037 9.41244 127.071 9.64518C127.444 9.72964 128.305 10.0582 128.234 11.2897C128.13 13.1114 127.131 15.9788 126.598 17.7957C126.039 19.7032 126.761 21.5379 128.439 22.4693C130.325 23.516 133.156 23.1999 135.198 20.7692C136.456 19.2723 137.246 17.4658 137.684 15.0834C138.023 13.2415 137.943 11.5479 137.446 10.0489C136.983 8.65509 136.175 7.45855 135.043 6.49281C129.7 1.93692 118.947 4.02951 117.86 11.1208C117.473 12.9747 117.536 14.9045 118.048 16.8612C117.966 17.2281 117.849 17.6981 117.725 18.1811C116.284 16.4554 115.712 13.7438 116.291 10.954ZM117.73 20.9748L118.928 21.7741L119.382 20.0413C120.184 16.9954 120.099 17.1299 120.179 16.7918C120.147 16.6022 119.302 14.3137 119.89 11.5335L119.902 11.4693C120.706 6.06364 129.589 4.59218 133.714 8.10982C135.493 9.62734 136.163 11.9042 135.649 14.6951C135.281 16.6994 134.638 18.1939 133.625 19.3983C132.229 21.061 130.471 21.1959 129.43 20.6178C129.043 20.4029 128.184 19.7557 128.582 18.3992C129.151 16.4577 130.18 13.5333 130.302 11.4127C130.41 9.52363 129.291 7.98625 127.518 7.58661C125.541 7.14171 123.263 8.22794 122.279 10.7624C121.57 12.5854 121.572 14.4799 122.284 16.5518C122.307 17.063 121.797 18.9904 121.384 20.5457C120.139 25.2471 118.433 31.6858 120.094 34.9645L120.62 36L121.579 35.3645C124.319 33.5501 125.921 28.2711 126.798 24.9828C129.108 26.7247 132.382 26.8717 135.62 25.2615C140.817 22.6763 144.285 16.5068 142.547 9.63832C140.611 1.98263 133.096 -0.98473 125.527 0.283178C119.287 1.32784 115.319 5.44428 114.265 10.5176C113.377 14.7981 114.769 19.0007 117.73 20.9748Z" fill="white"/>
<path d="M87.7266 0C90.6341 0 93 2.3655 93 5.27344V30.7266C93 33.6341 90.6341 36 87.7266 36H62.2734C59.3655 36 57 33.6341 57 30.7266V5.27344C57 2.3655 59.3655 0 62.2734 0H87.7266ZM62.2734 2.10938C60.5286 2.10938 59.1094 3.52864 59.1094 5.27344V30.7266C59.1094 32.4709 60.5286 33.8906 62.2734 33.8906H87.7266C89.4709 33.8906 90.8906 32.4709 90.8906 30.7266V5.27344C90.8906 3.52864 89.4709 2.10938 87.7266 2.10938H62.2734ZM75 8.50781C80.2339 8.50782 84.4922 12.7661 84.4922 18C84.4922 23.2339 80.2339 27.4922 75 27.4922C69.7661 27.4922 65.5078 23.2339 65.5078 18C65.5078 12.7661 69.7661 8.50781 75 8.50781ZM75 10.6172C70.9288 10.6172 67.6172 13.9288 67.6172 18C67.6172 22.0707 70.9288 25.3828 75 25.3828C79.0707 25.3828 82.3828 22.0707 82.3828 18C82.3828 13.9288 79.0707 10.6172 75 10.6172ZM85.5469 4.28906C87.2913 4.2891 88.7109 5.70837 88.7109 7.45312C88.7109 9.19746 87.2913 10.6172 85.5469 10.6172C83.8021 10.6172 82.3828 9.19748 82.3828 7.45312C82.3828 5.70834 83.8021 4.28906 85.5469 4.28906ZM85.5469 6.39844C84.9653 6.39844 84.4922 6.87157 84.4922 7.45312C84.4922 8.03434 84.9653 8.50781 85.5469 8.50781C86.1281 8.50778 86.6016 8.03432 86.6016 7.45312C86.6015 6.87159 86.128 6.39847 85.5469 6.39844Z" fill="white"/>
</svg>
