<svg width="24" height="24" viewBox="0 0 24 24" fill="none" xmlns="http://www.w3.org/2000/svg">
<path fill-rule="evenodd" clip-rule="evenodd" d="M14.6526 4.90189C14.6153 4.40287 14.1743 4 13.6276 4H10.8552L10.7813 4.00247C10.2448 4.03846 9.82759 4.46338 9.82759 4.97051V5.33333H6.05071C5.47042 5.33333 5 5.76642 5 6.30065V7.03268C5 7.56692 5.47042 8 6.05071 8H6.47282L7.12909 19.5787L7.13494 19.6285C7.17297 19.8404 7.37269 20 7.61119 20H16.3875L16.4418 19.9972C16.6736 19.9733 16.8571 19.7981 16.8696 19.5788L17.5296 8H17.9493C18.5296 8 19 7.56692 19 7.03268V6.30065C19 5.76642 18.5296 5.33333 17.9493 5.33333H14.6552V4.97051L14.6526 4.90189ZM13.6897 5.33333H10.7931V4.97051L10.7969 4.9434C10.8066 4.91009 10.833 4.88889 10.8552 4.88889H13.6276L13.6447 4.89272C13.6677 4.90275 13.6897 4.93171 13.6897 4.97051V5.33333ZM6.92821 7.11111H6.9347H17.9493C17.9963 7.11111 18.0345 7.076 18.0345 7.03268V6.30066C18.0345 6.25734 17.9963 6.22222 17.9493 6.22222H6.0507C6.00365 6.22222 5.96551 6.25734 5.96551 6.30066V7.03268C5.96551 7.076 6.00365 7.11111 6.0507 7.11111H6.92821ZM8.06939 19.1111L7.43965 8H16.5627L15.9292 19.1111H8.06939ZM12.7857 9.95873C12.7489 9.73769 12.48 9.56611 12.1536 9.56611C11.8022 9.56611 11.5172 9.7651 11.5172 10.0106V16.7407L11.5215 16.7926C11.5583 17.0136 11.8273 17.1852 12.1536 17.1852C12.5051 17.1852 12.79 16.9862 12.79 16.7407V10.0106L12.7857 9.95873ZM9.31272 9.77876C9.55975 9.7636 9.77574 9.9223 9.81954 10.1411L9.82653 10.1927L10.3093 16.8593C10.327 17.1042 10.1257 17.316 9.85971 17.3324C9.61268 17.3475 9.39669 17.1888 9.35289 16.97L9.34591 16.9185L8.86315 10.2518C8.84541 10.0069 9.04669 9.79509 9.31272 9.77876ZM15.1374 10.1999C15.1255 9.97761 14.9343 9.79392 14.6873 9.77876L14.6309 9.7783C14.3895 9.78921 14.19 9.96524 14.1735 10.1927L13.6907 16.8593L13.6902 16.9112C13.7021 17.1335 13.8933 17.3172 14.1403 17.3323C14.4063 17.3487 14.6364 17.1634 14.6541 16.9185L15.1369 10.2518L15.1374 10.1999Z" fill="#87189D"/>
</svg>
