<svg width="24" height="24" viewBox="0 0 24 24" fill="none" xmlns="http://www.w3.org/2000/svg">
<path fill-rule="evenodd" clip-rule="evenodd" d="M22.069 16.2969H20.8582C20.5532 15.4596 19.7319 14.857 18.7745 14.857C17.8171 14.857 16.9958 15.4596 16.6907 16.2969H15.9258V8.14924H18.9998C20.8958 8.14924 22.0737 9.54323 22.0737 11.7883V16.2969H22.069ZM18.7745 18.0958C18.1738 18.0958 17.6857 17.6173 17.6857 17.0284C17.6857 16.4396 18.1738 15.9611 18.7745 15.9611C19.3752 15.9611 19.8633 16.4396 19.8633 17.0284C19.8633 17.6173 19.3752 18.0958 18.7745 18.0958ZM5.78878 18.0958C5.18806 18.0958 4.69999 17.6173 4.69999 17.0284C4.69999 16.4396 5.18806 15.9611 5.78878 15.9611C6.38949 15.9611 6.87757 16.4396 6.87757 17.0284C6.87757 17.6173 6.38949 18.0958 5.78878 18.0958ZM1.92638 5.90414H14.7948V7.59717V16.3016H7.8725C7.56745 15.4642 6.74616 14.8616 5.78878 14.8616C4.83139 14.8616 4.01011 15.4642 3.70506 16.3016H1.92638V5.90414ZM21.9799 8.26886C21.2337 7.47755 20.173 7.04509 18.9951 7.04509H15.9211V5.35206C15.9211 5.04842 15.6677 4.79999 15.3579 4.79999H1.36322C1.05347 4.79999 0.800049 5.04842 0.800049 5.35206V16.849C0.800049 17.1527 1.05347 17.4011 1.36322 17.4011H3.6065C3.78953 18.4224 4.69529 19.2 5.78878 19.2C6.88226 19.2 7.78802 18.4224 7.97105 17.4011H15.3579H16.5922C16.7752 18.4224 17.681 19.2 18.7745 19.2C19.868 19.2 20.7737 18.4224 20.9568 17.4011H22.6369C22.9466 17.4011 23.2001 17.1527 23.2001 16.849V11.7883C23.1954 10.3299 22.7777 9.11077 21.9799 8.26886Z" fill="black"/>
</svg>
