<svg width="162" height="35" viewBox="0 0 162 35" fill="none" xmlns="http://www.w3.org/2000/svg">
<path fill-rule="evenodd" clip-rule="evenodd" d="M23.2837 11.5827C23.2837 5.43884 28.0194 0.654663 33.9883 0.654663C39.9573 0.654663 44.7423 5.43884 44.7423 11.5827C44.7423 17.7266 39.9573 22.5108 33.9883 22.5108C28.0194 22.5108 23.2837 17.777 23.2837 11.5827ZM28.5127 11.5827C28.5127 14.9568 30.8805 17.3237 33.9883 17.3237C37.0961 17.3237 39.5133 14.9568 39.5133 11.5827C39.5133 8.20862 37.0961 5.84171 33.9883 5.84171C30.9299 5.84171 28.5127 8.20862 28.5127 11.5827Z" fill="white"/>
<path fill-rule="evenodd" clip-rule="evenodd" d="M5.27832 10.5755C6.70889 8.66187 8.87942 7.55396 11.8392 7.55396C17.2655 7.55396 21.7546 12.2878 21.7052 18.5324C21.7052 24.6763 17.2162 29.4604 11.7899 29.4604C8.83009 29.4604 6.70889 28.3525 5.22899 26.4388V35H0V8.10791H5.27832V10.5755ZM5.22899 18.482C5.22899 21.9568 7.64616 24.3237 10.8526 24.3237C14.1084 24.3237 16.4762 21.9568 16.4762 18.482C16.4762 15.0072 14.1084 12.6403 10.8526 12.6403C7.64616 12.6403 5.22899 15.0072 5.22899 18.482Z" fill="white"/>
<path fill-rule="evenodd" clip-rule="evenodd" d="M52.438 10.5755C53.8686 8.66187 56.0391 7.55396 58.9989 7.55396C64.4252 7.55396 68.9142 12.2878 68.8649 18.5324C68.8649 24.6763 64.3759 29.4604 58.9496 29.4604C55.9898 29.4604 53.8686 28.3525 52.3887 26.4388V35H47.1597V8.10791H52.438V10.5755ZM52.3887 18.482C52.3887 21.9568 54.8058 24.3237 58.0123 24.3237C61.2681 24.3237 63.6852 21.9568 63.6359 18.482C63.6359 15.0072 61.2681 12.6403 58.0123 12.6403C54.8058 12.6403 52.3887 15.0072 52.3887 18.482Z" fill="white"/>
<rect x="137.088" y="0.050354" width="5.22899" height="28.8561" fill="#989899"/>
<path d="M102.952 7.55395C100.239 7.55395 98.1175 8.61151 96.8843 10.4748V0.050354H91.6553V28.9065H96.8843V17.6763C96.8843 14.0504 98.8081 12.5396 101.373 12.5396C103.741 12.5396 105.418 14 105.418 16.8201V28.9065H110.647V16.1151C110.598 10.6259 107.244 7.55395 102.952 7.55395Z" fill="#989899"/>
<path fill-rule="evenodd" clip-rule="evenodd" d="M113.41 18.482C113.41 12.3381 117.751 7.55396 124.115 7.55396C130.133 7.55396 134.375 12.3885 134.375 18.482C134.375 19.2878 134.277 19.9928 134.178 20.6978H118.836C119.576 23.4173 121.944 24.5755 124.46 24.5755C126.532 24.5755 128.308 23.7194 129.196 22.5108L133.438 24.9784C131.514 27.7986 128.456 29.4101 124.559 29.4101C117.702 29.4101 113.41 24.6763 113.41 18.482ZM124.115 12.3885C121.451 12.3885 119.379 13.5971 118.787 16.5683H129.146C128.604 13.5971 126.482 12.3885 124.115 12.3885Z" fill="#989899"/>
<path d="M76.955 14C77.0044 12.741 78.4349 11.9352 80.2602 12.0863C82.48 12.2878 83.7626 13.3453 84.4039 14.6547L88.2516 11.8345C86.8211 9.06475 83.7133 7.55396 80.1122 7.55396C75.5738 7.55396 71.726 9.8705 71.726 14.1007C71.726 21.554 83.6639 19.5899 83.6639 22.8129C83.6639 24.0216 82.036 24.777 79.9642 24.5755C77.399 24.3237 75.8204 23.0144 74.9818 21.5036L70.9368 24.4245C73.1073 27.8489 76.1658 29.4101 80.0628 29.4101C84.7985 29.4101 88.9916 27.2446 88.9916 22.7626C88.9916 15.0576 76.8564 17.2734 76.955 14Z" fill="#989899"/>
<path d="M157.511 5.18704H159.632V0.050354H157.511C151.049 0.050354 147.941 3.07194 147.941 8.81294V9.01438H145.031V14.1007H147.941V28.8561H153.17V14.1007H159.583V8.96402H153.17V8.76258C153.219 5.94244 154.749 5.18704 157.511 5.18704Z" fill="#989899"/>
<path fill-rule="evenodd" clip-rule="evenodd" d="M161.161 1.81295C161.605 1.81295 162 1.41007 162 0.906475C162 0.402878 161.605 0 161.161 0C160.717 0 160.323 0.402878 160.323 0.906475C160.323 1.41007 160.668 1.81295 161.161 1.81295ZM161.161 0.201439C161.556 0.201439 161.852 0.503597 161.852 0.906475C161.852 1.30935 161.556 1.61151 161.161 1.61151C160.767 1.61151 160.471 1.30935 160.471 0.906475C160.471 0.503597 160.767 0.201439 161.161 0.201439ZM161.26 1.00719L161.457 1.30935H161.309L161.112 1.00719H161.063V1.30935H160.915V0.453237H161.26C161.457 0.453237 161.556 0.604317 161.556 0.705036C161.457 0.906475 161.408 1.00719 161.26 1.00719ZM161.013 0.856115V0.604317V0.553957H161.161C161.26 0.553957 161.309 0.654676 161.309 0.705036C161.309 0.805755 161.26 0.856115 161.161 0.856115H161.013Z" fill="#989899"/>
</svg>
