<svg width="120" height="25" viewBox="0 0 120 25" fill="none" xmlns="http://www.w3.org/2000/svg">
<path fill-rule="evenodd" clip-rule="evenodd" d="M25.1643 12.3878C22.8765 12.3878 21.101 10.6983 21.101 8.29745C21.101 5.89619 22.8765 4.20671 25.1643 4.20671C27.4818 4.20671 29.258 5.89619 29.258 8.29745C29.258 10.6983 27.4818 12.3878 25.1643 12.3878ZM25.1643 0.471863C20.7396 0.471863 17.2178 3.88069 17.2178 8.29745C17.2178 12.7139 20.7396 16.123 25.1643 16.123C29.5887 16.123 33.1408 12.7139 33.1408 8.29745C33.1408 3.88069 29.5887 0.471863 25.1643 0.471863Z" fill="#862D91"/>
<mask id="mask0_12169_9305" style="mask-type:luminance" maskUnits="userSpaceOnUse" x="0" y="5" width="17" height="20">
<path fill-rule="evenodd" clip-rule="evenodd" d="M0 5.3855H16.1032V25H0V5.3855Z" fill="white"/>
</mask>
<g mask="url(#mask0_12169_9305)">
<path fill-rule="evenodd" clip-rule="evenodd" d="M8.03644 17.3903C5.65873 17.3903 3.88247 15.7009 3.88247 13.2107C3.88247 10.7209 5.65873 9.03147 8.03644 9.03147C10.4445 9.03147 12.2204 10.7209 12.2204 13.2107C12.2204 15.7009 10.4445 17.3903 8.03644 17.3903ZM8.75886 5.3855C6.56165 5.3855 4.96628 6.1858 3.88247 7.54926V5.8004H0V25H3.88247V18.8726C4.96628 20.236 6.56165 21.0363 8.75886 21.0363C12.7922 21.0363 16.1032 17.6275 16.1032 13.2107C16.1032 8.79433 12.7922 5.3855 8.75886 5.3855Z" fill="#862D91"/>
</g>
<mask id="mask1_12169_9305" style="mask-type:luminance" maskUnits="userSpaceOnUse" x="34" y="5" width="18" height="20">
<path fill-rule="evenodd" clip-rule="evenodd" d="M34.9414 5.3855H51.0446V25H34.9414V5.3855Z" fill="white"/>
</mask>
<g mask="url(#mask1_12169_9305)">
<path fill-rule="evenodd" clip-rule="evenodd" d="M42.9778 17.3903C40.6001 17.3903 38.8239 15.7009 38.8239 13.2107C38.8239 10.7209 40.6001 9.03147 42.9778 9.03147C45.3859 9.03147 47.1618 10.7209 47.1618 13.2107C47.1618 15.7009 45.3859 17.3903 42.9778 17.3903ZM43.7003 5.3855C41.5031 5.3855 39.9077 6.1858 38.8239 7.54926V5.8004H34.9414V25H38.8239V18.8726C39.9077 20.236 41.5031 21.0363 43.7003 21.0363C47.7337 21.0363 51.0446 17.6275 51.0446 13.2107C51.0446 8.79433 47.7337 5.3855 43.7003 5.3855Z" fill="#862D91"/>
</g>
<mask id="mask2_12169_9305" style="mask-type:luminance" maskUnits="userSpaceOnUse" x="0" y="0" width="120" height="25">
<path fill-rule="evenodd" clip-rule="evenodd" d="M0 25H120V0H0V25Z" fill="white"/>
</mask>
<g mask="url(#mask2_12169_9305)">
<path fill-rule="evenodd" clip-rule="evenodd" d="M101.545 20.6268H105.427V0.0187073H101.545V20.6268Z" fill="#3D4643"/>
<path fill-rule="evenodd" clip-rule="evenodd" d="M76.2534 5.39083C74.2367 5.39083 72.6713 6.13175 71.7687 7.46571V0.0186768H67.8862V20.6267H71.7687V12.6234C71.7687 10.0444 73.1836 8.94792 75.0797 8.94792C76.8252 8.94792 78.0596 9.98536 78.0596 12.0009V20.6267H81.9421V11.5266C81.9421 7.58446 79.4441 5.39083 76.2534 5.39083Z" fill="#3D4643"/>
<path fill-rule="evenodd" clip-rule="evenodd" d="M87.9963 11.8233C88.4242 9.70017 89.9802 8.82934 91.9395 8.82934C93.685 8.82934 95.2819 9.70017 95.6718 11.8233H87.9963ZM91.9395 5.39101C87.2133 5.39101 83.9929 8.79984 83.9929 13.2162C83.9929 17.633 87.1833 21.0418 92.2402 21.0418C95.1295 21.0418 97.3874 19.8856 98.8022 17.8701L95.6718 16.0914C95.0096 16.9514 93.6814 17.5736 92.1763 17.5736C90.3119 17.5736 88.5631 16.7438 88.0212 14.7873H99.404C99.4943 14.2835 99.555 13.7798 99.555 13.2162C99.555 8.85921 96.3938 5.39101 91.9395 5.39101Z" fill="#3D4643"/>
<path fill-rule="evenodd" clip-rule="evenodd" d="M56.9912 9.98928C57.0145 9.08642 58.0852 8.52182 59.4372 8.6269C61.0976 8.75572 62.0232 9.52543 62.5139 10.474L65.3733 8.44805C64.3143 6.49012 61.9991 5.39079 59.3462 5.39079C55.9728 5.39079 53.1233 7.04573 53.1233 10.0692C53.1233 15.3834 61.9786 13.9836 61.9786 16.2992C61.9786 17.1589 60.7793 17.7066 59.2428 17.5666C57.3317 17.3928 56.1668 16.4428 55.5496 15.3765L52.5693 17.4791C54.1768 19.9354 56.4536 21.0416 59.3133 21.0416C62.8176 21.0416 65.9316 19.5004 65.9316 16.2992C65.9316 10.768 56.9309 12.334 56.9912 9.98928Z" fill="#3D4643"/>
<path fill-rule="evenodd" clip-rule="evenodd" d="M116.683 3.69405H118.244V0.0185699H116.683C111.897 0.0185699 109.61 2.18269 109.61 6.27307V6.40477H107.442V10.0806H109.61V20.6266H113.492V10.0806H118.244V6.40477H113.492V6.27307C113.492 4.25757 114.633 3.69405 116.683 3.69405Z" fill="#3D4643"/>
<path fill-rule="evenodd" clip-rule="evenodd" d="M119.276 0.442941V0.628622H119.389C119.456 0.628622 119.483 0.578603 119.483 0.535781C119.483 0.49296 119.456 0.442941 119.389 0.442941H119.276ZM119.463 0.723262L119.626 0.948526H119.487L119.331 0.732258H119.276V0.948526H119.153V0.332108H119.398C119.537 0.332108 119.605 0.423149 119.605 0.526785C119.605 0.641217 119.559 0.702031 119.463 0.723262ZM119.887 0.63222C119.887 0.344703 119.657 0.110802 119.365 0.110802C119.073 0.110802 118.843 0.344703 118.843 0.63222C118.843 0.920098 119.073 1.1522 119.365 1.1522C119.657 1.1522 119.887 0.920098 119.887 0.63222ZM120 0.63222C120 0.980552 119.719 1.26303 119.365 1.26303C119.011 1.26303 118.732 0.980552 118.732 0.63222C118.732 0.283889 119.011 -3.05176e-05 119.365 -3.05176e-05C119.719 -3.05176e-05 120 0.283889 120 0.63222Z" fill="#3D4643"/>
</g>
</svg>
