<svg width="138" height="149" viewBox="0 0 138 149" fill="none" xmlns="http://www.w3.org/2000/svg">
<path fill-rule="evenodd" clip-rule="evenodd" d="M96.5455 34.9027C85.6808 32.0944 74.4135 38.5534 71.4275 49.3015C68.4416 60.0496 74.8508 71.0777 85.7155 73.8861C96.5802 76.6944 107.848 70.2354 110.833 59.4873C113.819 48.7392 107.41 37.7111 96.5455 34.9027ZM81.1536 90.307C61.1365 85.1329 49.3273 64.8133 54.8286 45.0109C60.3299 25.2085 81.0903 13.3077 101.107 18.4818C121.124 23.6559 132.934 43.9755 127.432 63.7779C121.931 83.5803 101.171 95.4811 81.1536 90.307Z" fill="#DBBAE2"/>
<path fill-rule="evenodd" clip-rule="evenodd" d="M52.3391 75.0643C41.4744 72.2559 30.2071 78.7149 27.2211 89.463C24.2352 100.211 30.6444 111.239 41.5091 114.048C52.3737 116.856 63.6411 110.397 66.627 99.6488C69.613 88.9007 63.2037 77.8726 52.3391 75.0643ZM36.9472 130.469C16.9301 125.294 5.12084 104.975 10.6222 85.1725C16.1235 65.3701 36.8839 53.4692 56.901 58.6433C76.918 63.8174 88.7273 84.137 83.226 103.939C77.7247 123.742 56.9642 135.643 36.9472 130.469Z" fill="#9230A8"/>
</svg>
