<svg width="96" height="96" viewBox="0 0 96 96" fill="none" xmlns="http://www.w3.org/2000/svg">
<path d="M51.1345 5.30443L51.6853 5.87767L52.3269 5.40892L55.9802 2.73705L58.5007 6.49681L58.9441 7.15697L59.657 6.80736L63.7185 4.81126L65.5486 8.95091L65.8699 9.67845L66.6335 9.45677L70.9792 8.19603L72.0623 12.5915L72.2527 13.363L73.0427 13.2781L77.5417 12.7917L77.8455 17.3083L77.8992 18.1013L78.6921 18.154L83.2068 18.4568L82.7214 22.9568L82.6365 23.7468L83.408 23.9372L87.8025 25.0193L86.5427 29.3669L86.322 30.1306L87.0486 30.4519L91.1882 32.281L89.1931 36.3425L88.8425 37.0564L89.5027 37.4988L93.2615 40.0193L90.5916 43.6736L90.1228 44.3152L90.696 44.865L93.9597 47.9997L90.696 51.1345L90.1228 51.6853L90.5916 52.3269L93.2625 55.9802L89.5027 58.5007L88.8425 58.9441L89.1931 59.657L91.1882 63.7185L87.0486 65.5486L86.322 65.8699L86.5427 66.6335L87.8025 70.9792L83.408 72.0622L82.6365 72.2527L82.7214 73.0427L83.2068 77.5417L78.6921 77.8454L77.8992 77.8992L77.8455 78.6921L77.5417 83.2068L73.0427 82.7214L72.2527 82.6365L72.0623 83.4079L70.9792 87.8025L66.6335 86.5427L65.8699 86.322L65.5486 87.0486L63.7185 91.1882L59.657 89.1931L58.9441 88.8425L58.5007 89.5027L55.9802 93.2624L52.3269 90.5915L51.6853 90.1228L51.1345 90.696L47.9998 93.9597L44.865 90.696L44.3152 90.1228L43.6736 90.5915L40.0193 93.2615L37.4988 89.5027L37.0564 88.8425L36.3425 89.1931L32.281 91.1882L30.4519 87.0486L30.1306 86.322L29.3669 86.5427L25.0193 87.8025L23.9373 83.4079L23.7468 82.6365L22.9568 82.7214L18.4568 83.2068L18.1541 78.6921L18.1013 77.8992L17.3083 77.8454L12.7917 77.5417L13.2781 73.0427L13.363 72.2527L12.5916 72.0622L8.19604 70.9792L9.45679 66.6335L9.67847 65.8699L8.95093 65.5486L4.81128 63.7185L6.80737 59.657L7.15698 58.9441L6.49683 58.5007L2.73706 55.9802L5.40894 52.3269L5.87769 51.6853L5.30444 51.1345L2.03979 47.9997L5.30444 44.865L5.87769 44.3152L5.40894 43.6736L2.73804 40.0193L6.49683 37.4988L7.15698 37.0564L6.80737 36.3425L4.81128 32.281L8.95093 30.4519L9.67847 30.1306L9.45679 29.3669L8.19604 25.0202L12.5916 23.9372L13.363 23.7468L13.2781 22.9568L12.7917 18.4568L17.3083 18.154L18.1013 18.1013L18.1541 17.3083L18.4568 12.7917L22.9568 13.2781L23.7468 13.363L23.9373 12.5915L25.0203 8.19603L29.3669 9.45677L30.1306 9.67845L30.4519 8.95091L32.281 4.81126L36.3425 6.80736L37.0564 7.15697L37.4988 6.49681L40.0193 2.73802L43.6736 5.40892L44.3152 5.87767L44.865 5.30443L47.9998 2.03978L51.1345 5.30443Z" fill="#C691D0" stroke="#87189D" stroke-width="1.81818"/>
</svg>
