<svg width="44" height="48" viewBox="0 0 44 48" fill="none" xmlns="http://www.w3.org/2000/svg">
<path d="M21.7004 0.00642986C21.3571 0.0544844 21.0427 0.277437 20.8835 0.585876C20.3083 1.66789 19.4692 3.17888 18.7732 4.65911C18.0801 6.13318 17.4581 7.43521 17.4797 8.73234C17.4797 8.7385 17.4797 8.7433 17.4797 8.74935C17.4831 9.58477 17.7277 10.3087 18.0754 10.8797C18.7732 12.5499 20.9351 11.6236 20.9351 12.5499V17.1851H7.1322C5.76275 17.1851 4.0988 17.6718 2.65621 18.8042C1.21362 19.9365 0.05231 21.8028 0.05231 24.2749V28.0925C0.05231 30.8834 1.6004 33.3561 3.86456 34.688V43.3292C3.86456 44.2382 4.12673 45.0951 4.57936 45.8175C3.40408 45.8175 2.20646 45.8175 1.03941 45.8175C0.469022 45.8442 -0.0257009 46.3882 0.00103579 46.9593C0.0277729 47.5305 0.571146 48.0258 1.14152 47.999C16.4313 47.999 28.3187 47.999 42.5317 47.999C43.1071 48.0071 43.6364 47.4846 43.6364 46.9082C43.6364 46.3319 43.1071 45.8093 42.5317 45.8175H39.0938C39.5465 45.0951 39.8086 44.2382 39.8086 43.3292V34.688C42.0728 33.3561 43.6209 30.8834 43.6209 28.0925V24.2749C43.6209 21.8028 42.4596 19.9365 41.017 18.8042C39.5744 17.6718 37.9104 17.1851 36.541 17.1851L22.9258 17.1851L22.8918 12.5499C22.8918 11.6236 24.9 12.5499 25.5978 10.8797C25.9454 10.3088 26.1901 9.5848 26.1934 8.74939C26.1935 8.74322 26.1934 8.7385 26.1934 8.73234C26.2151 7.43521 25.5931 6.13321 24.9 4.65914C24.204 3.17891 23.3649 1.66792 22.7897 0.585909C22.5876 0.197856 22.1347 -0.0431193 21.7004 0.00642986ZM21.8366 3.46609C22.2187 4.19339 22.5757 4.85175 22.9258 5.59644C23.5815 6.99095 24.021 8.41299 24.015 8.69825C24.0148 8.7096 24.0148 8.721 24.015 8.73234C24.015 9.4475 23.7846 9.78212 23.5215 10.0276C23.2583 10.2731 22.8578 10.3696 22.8918 10.3684H20.7814C20.8154 10.3695 20.4149 10.2731 20.1517 10.0276C19.8886 9.78212 19.6582 9.4475 19.6582 8.73234C19.6583 8.721 19.6583 8.7096 19.6582 8.69825C19.6522 8.41299 20.0917 6.99095 20.7474 5.59644C21.0975 4.85175 21.4545 4.19339 21.8366 3.46609ZM7.1322 19.3666C16.9351 19.3666 26.7381 19.3666 36.541 19.3666C37.3415 19.3666 38.6622 19.7154 39.6725 20.5084C40.6827 21.3014 41.4424 22.4504 41.4424 24.2749V28.0925C41.4424 31.0527 38.9307 33.5462 35.9964 33.5462H35.4518C32.4058 33.5462 30.0057 31.598 30.0057 28.6379C30.0376 28.0664 29.5469 27.5174 28.9761 27.4861C28.4054 27.4551 27.8578 27.9469 27.8273 28.5185C27.5395 31.1652 25.1959 33.0009 22.3812 33.0008C22.0181 33.0008 21.6551 33.0008 21.292 33.0008C18.4772 33.0008 16.1337 31.1652 15.8459 28.5185C15.8154 27.9469 15.2678 27.4549 14.6971 27.4861C14.1263 27.5172 13.6356 28.0664 13.6675 28.6379C13.6675 31.598 11.2674 33.5462 8.22142 33.5462H7.67681C4.74244 33.5462 2.23074 31.0527 2.23074 28.0925V24.2749C2.23074 22.4504 2.99046 21.3014 4.00071 20.5084C5.01097 19.7154 6.33168 19.3666 7.1322 19.3666ZM14.9779 31.9101C16.3805 33.8923 18.7071 35.1823 21.292 35.1823C21.6551 35.1823 22.0181 35.1823 22.3812 35.1823C24.9661 35.1824 27.2926 33.8923 28.6952 31.9101C29.9886 34.2448 32.5918 35.7276 35.4518 35.7276H35.9964C36.5579 35.7276 37.1004 35.6599 37.6302 35.5402V43.3292C37.6302 44.7266 36.5532 45.8175 35.1965 45.8175H8.4767C7.11999 45.8175 6.04299 44.7266 6.04299 43.3292V35.5402C6.57274 35.6599 7.1153 35.7276 7.67681 35.7276H8.22142C11.0814 35.7276 13.6846 34.2448 14.9779 31.9101Z" fill="#87189D"/>
</svg>
